<?xml version="1.0" encoding="UTF-8" standalone="no"?>
<svg id="svg2" xmlns:rdf="http://www.w3.org/1999/02/22-rdf-syntax-ns#" xmlns="http://www.w3.org/2000/svg" enable-background="new 0 0 392 443" xml:space="preserve" height="727.97" viewBox="0 0 203.651 403.11324" width="664.98" version="1.1" y="0px" x="0px" xmlns:cc="http://creativecommons.org/ns#" xmlns:dc="http://purl.org/dc/elements/1.1/"><g fill="#cccfe2"><path id="path3921" d="m120.73 343.8-3.182 6.541 2.475 6.187 8.662 5.48 12.551 5.657 11.137 7.601 9.546 9.016 10.783 13.081 4.95 2.828 9.192-0.884 12.198-3.536 10.607-6.718 6.01-7.425 2.298-7.071-0.884-6.718-6.187-9.016-10.96-7.955-13.258-8.839-20.683-9.899-45.255 11.67z"/><path id="path3919" d="m57.444 274.33-9.192-4.419-10.783-1.061-10.076 3.889-8.485 9.192-4.243 11.314-1.768 11.667s2.121 13.081 3.005 14.319 5.834 10.96 5.834 10.96l3.712 4.596-22.274 6.894-19.269 9.369-10.253 8.839-3.182 7.425 1.591 8.308 4.419 6.541 9.016 6.894 12.905 4.95 10.96 2.121 8.132-4.596 13.081-10.43 14.142-9.016 19.445-7.601 11.49-3.712 3.182-2.121 2.652-3.182-2.497-10.098 27.422-1.569 13.612 1.945 34.648-6.718 10.96-6.541 10.96-9.723 0.177-18.208-3.359-13.612-6.541-10.607-9.016-6.01-11.137-4.066-9.899 0.53-4.243 2.652-74.246-2.298-0.882 3.183z"/><path id="path3917" d="m163.33 203.09 5.657-13.258 8.839-13.435 11.844-11.314 9.546-3.536 9.369 0.177 13.612 4.95 6.364 7.248 14.849 0.53 13.435 2.121 10.783 5.48 2.828 6.364-2.475 3.889-8.308 3.182-17.501 2.298-10.96-0.354-7.425 6.187 30.229 12.021 16.97 9.192 7.778 6.187 3.005 5.48 0.177 4.066-2.828 2.475-6.894 1.237-6.718 0.177-25.633-3.889-20.683-5.127-18.385-1.414 16.264 15.026 11.667 12.198 7.425 12.905 0.354 6.894-3.005 3.359-6.894-1.061-12.551-6.01-17.147-11.844-18.385-14.142-5.48 2.652-11.844-46.846 2.121-4.065z"/><path id="path3915" d="m68.404 174.45-0.53 14.319-7.248-0.53-8.485 4.773-12.198 10.96-23.865-10.783-14.672-5.657-8.662-1.414-8.132-3.712-10.783-0.707-12.021 2.652-7.955 6.364-13.435 4.066-12.021 7.071-3.182 6.364v4.243l5.303 2.298 15.38-0.354 1.414 4.95 9.016 3.712-0.707 2.121-21.567 16.794-9.192 10.076-3.183 3.181 1.591 4.95 7.601 1.768 12.728-2.298 23.688-7.601 20.86-9.369 7.248 5.127-7.955 12.551-7.425 16.087-2.475 11.667 3.889 4.065 6.01-1.768 10.783-7.248 13.965-12.728 6.541-8.309 10.253 2.298 8.132-1.237 3.182 4.066 8.485-0.884 10.607-7.601-1.237 15.556 73.362 0.177-3.712-27.754 8.662 5.48 10.253 3.359 4.596 5.834 11.137 7.248 8.132 2.298 6.364-1.591 1.414-7.425-2.298-8.132-13.258-50.912-6.894 5.303-17.147-14.496-26.34-28.284-44.017 9.016z"/></g><path id="path3757" d="m-22.23 180.66c-14.298 0-22.737 5.954-27.375 13.188s-5.594 15.613-5.594 20.812c0 1.672 0.195 2.99 0.656 4.094s1.237 1.946 2.125 2.531c1.775 1.171 3.933 1.516 6.562 2.438 14.781 5.179 27.279 15.531 39.406 24.688s23.928 17.188 37.438 17.188c8.675 0 15.574-5.384 22.375-14.531 4.499-6.051 9.006-13.445 14.212-22.964 2.816-5.149 6.368-11.013 6.319-16.38-9.029 15.989-15.957 28.96-22.562 37.844s-12.694 13.531-20.344 13.531c-12.509 0-23.876-7.58-35.938-16.688s-24.751-19.656-40.094-25.031c-2.805-0.983-4.895-1.428-6-2.156-0.552-0.364-0.908-0.769-1.188-1.438s-0.469-1.655-0.469-3.125c0-4.886 0.977-12.852 5.219-19.469s11.629-12.031 25.25-12.031c13.685 0 27.404 11.983 37.562 24.188 10.158 12.204 16.75 24.438 16.75 24.438 1.292-6.239-14.407-25.507-14.844-26.031-10.336-12.431-24.355-25.096-39.466-25.096z" fill="#929ab8"/><path id="path3759" d="m63.895 187.09c-4.661-0.063-9.239 2.309-13.5 5.625s-8.25 7.688-11.688 12.031c-6.875 8.687-11.594 17.344-11.594 17.344l2.188 1.219s4.656-8.512 11.375-17c3.359-4.244 7.234-8.469 11.25-11.594s8.152-5.125 11.969-5.125c10.451 0 13.906 8.031 13.906 8.031 0.859-7.864-9.942-10.477-13.906-10.531z" fill="#929ab8"/><path id="path3913" d="m15.901 36.214-7.599-8.152-5.75-3.375-6.188 7.312-5.312 16.438-0.688 9.812 1.188 19.812 7.312 14.812 4.625 9 12.562 10.25 2.438 14.438 8.814 19.519 10.96 14.142 16.352 10.43 18.12 4.419 22.451-0.354 12.905-4.419 11.932-6.364 11.844-12.198 6.806-12.374 5.568-15.114 1.679-16.794-1.061-13.347-1.503-9.281-20.179-16.889-107.28-31.723z" fill="#cccfe2"/><g stroke="#929ab8" stroke-width="2.5" fill="none"><path id="path3761" d="m68.12 174.75c0.376 4.06 0.367 9.258-1.023 13.886"/><path id="path3763" d="m40.814 204.51c-15.024-6.784-31.025-16.011-47.893-18.325"/><path id="path3765" d="m-45.31 190.1s-29.965 7.455-29.965 20.026c0 7.016 21.049 4.239 21.049 4.239"/><path id="path3767" d="m-42.533 223.58s-35.227 26.311-35.227 32.889c0 17.102 66.216-13.448 66.216-13.448"/><path id="path3769" d="m-4.8204 248.28s-17.248 25.434-17.248 38.297c0 20.903 41.367-23.68 41.367-23.68"/></g><path id="path3771" d="m59.739 236.78s-0.699 10.537-1.781 21.031c-0.854 8.285-1.016 18.668-1.016 26.98 0 5.711 0.235 10.171 2.766 14.458 0 0-0.922-24.97 0.75-41.188 1.088-10.553 1.781-21.094 1.781-21.094l-2.5-0.187z" fill="#929ab8"/><path id="path3773" d="m40.802 267.84c-14.316 0-28.625 13.371-28.625 36.719 0 23.708 19.308 39.308 26.938 37.812 0 0-24.438-10.022-24.438-37.812 0-22.337 13.361-34.219 26.125-34.219 6.566 0 10.645 1.601 13.062 3.125s3.125 2.875 3.125 2.875l2.188-1.219s-1.172-1.998-4-3.781-7.402-3.5-14.375-3.5z" fill="#929ab8"/><path id="path3775" d="m59.367 257.07c-4.291 5.515-15.646 16.384-23.411 6.253" stroke="#929ab8" stroke-width="2.5" fill="none"/><path id="path3907" d="m141.24 133.44 0.795 10.783-1.768 15.291-2.563 14.054 0.884 19.003 5.834 21.655-11.49-7.601-7.955-9.192 0.972 19.18 3.712 14.496-10.43-14.938-6.541-14.407-3.005-16.971 2.475-16.087 11.932-7.601 10.695-12.993 6.541-15.114 0.177 1.061-0.265-0.619z" fill="#feffa5"/><path id="path3777" d="m124.96 223.12-2.438 0.469c4.786 25.793 7.399 48.219 9.437 74.031 1.712-4.243 1.709-9.194 1.335-13.8-1.658-20.42-4.391-39.448-8.334-60.7z" fill="#929ab8"/><path id="path3909" d="m176.24 309.86 15.026-2.121 16.617 0.354 15.38 3.359 13.612 5.303 17.678 10.783 5.126 4.596-10.607-1.768 11.137 9.016 10.076 9.723 6.269 12.703 1.5 12.875-2.625 15.5-4.5 9.875-3.375-13.5-8.25-13.25-2.75-2.25 1.5 13.375-6.75-5.875-9.75-8.125-13.5-5.625-16.25-3.75-9.375-8.875-20.75-12.25-16.25-8 6.875-6.625 4.125-11.625-0.189-3.823z" fill="#feffa5"/><path id="path3020" d="m212.14 360.89c16.186 3.155 32.084 7.492 45.539 24.557 0.566-5.85 0.024-9.625-2.071-15.655 6.889 7.419 13.195 15.726 15.203 30.582 0 0 7.071-10.96 7.071-29.522 0-19.193-21.361-35.691-29.805-40.534 4.352 0.344 7.819 1.044 13.028 2.813-11.333-10.227-36.052-25.212-61.358-25.212-14.496 0-22.981 2.475-22.981 2.475" stroke="#f0e268" stroke-miterlimit="6.2" stroke-width="2.5" fill="none"/><path id="path3779" d="m144.49 269.41c-5.505 0-9.022 1.209-11.188 2.5-1.083 0.645-1.836 1.323-2.312 1.844s-0.75 0.969-0.75 0.969l2.219 1.188s0.054-0.118 0.375-0.469 0.882-0.858 1.75-1.375c1.736-1.035 4.765-2.156 9.906-2.156 4.862 0 12.805 2.836 19.344 8.625s11.75 14.415 11.75 26.188c0 15.424-8.039 23.802-16.187 28.531-8.149 4.729-16.313 5.625-16.313 5.625 7.634 1.204 16.989-3.136 17.563-3.469 8.662-5.018 17.437-14.38 17.437-30.688 0-12.517-5.618-21.887-12.594-28.062s-15.216-9.251-21-9.251z" fill="#929ab8"/><path id="path3792" d="m99.614 343c-8.842 0.013-21.996 0.952-26.219 4.031 17.703-2.433 34.965-2.306 51.906-0.156-6.157-3.076-17.028-3.887-25.687-3.875z" fill="#929ab8"/><path id="path3794" d="m25.327 334.41s-54.704 14.291-54.704 34.17c0 18.418 30.988 27.042 36.982 27.042 12.132 0 14.518-18.798 67.239-34.643 11.316-3.401 3.654-15.494 3.654-15.494" stroke="#929ab8" stroke-width="2.5" fill="none"/><path id="path3796" d="m166.05 331.62-0.906 2.312s12.956 5.145 25.906 12.719c6.475 3.787 12.942 8.169 17.719 12.781 4.776 4.612 7.781 9.39 7.781 13.812 0 6.874-5.208 13.287-12.438 17.969s-16.371 7.531-23.438 7.531c-3.604 0-5.809-1.093-8.062-3.156s-4.461-5.157-7.531-8.906c-6.141-7.498-15.807-17.432-37.187-26.75-3.986-1.737-6.288-3.528-7.531-5.125s-1.506-2.999-1.375-4.25c0.261-2.502 2.312-4.438 2.312-4.438l-2.461-1.004s-1.939 1.544-2.32 5.192c-0.191 1.824 0.245 3.978 1.844 6.031s4.294 4.029 8.531 5.875c21.04 9.17 30.234 18.686 36.25 26.031 3.008 3.673 5.217 6.84 7.781 9.188s5.597 3.812 9.75 3.812c7.729 0 17.144-2.992 24.781-7.938s13.594-11.947 13.594-20.062c0-5.517-3.519-10.754-8.531-15.594s-11.61-9.31-18.188-13.156c-13.154-7.692-26.281-12.874-26.281-12.874z" fill="#929ab8"/><path id="path3798" d="m202.68 160.25c-11.565 0-21.811 9.451-29.812 21.625-3.609 5.491-6.973 11.492-9.39 17.704-2.074 5.329-6.66 15.208-4.423 22.14 2.378-11.731 8.122-26.624 15.906-38.469 7.785-11.844 17.539-20.5 27.719-20.5 12.709 0 20.298 5.72 24.906 12.219s6.094 13.96 6.094 16.719c0 1.493-0.178 2.453-0.406 3.062-0.229 0.609-0.461 0.887-0.875 1.188-0.829 0.6-2.576 1.081-4.688 2.531-14.038 9.637-23.885 23.958-33.375 35.75-4.745 5.896-9.396 11.167-14.344 14.906s-10.147 5.969-16.188 5.969c-2.621 0-6.304-1.811-10.156-4.719s-7.902-6.84-11.563-10.781c-7.32-7.882-13.094-15.781-13.094-15.781l-2 1.469s5.84 7.988 13.281 16c3.72 4.006 7.831 8.041 11.875 11.094 4.044 3.052 7.983 5.219 11.656 5.219 6.662 0 12.444-2.506 17.688-6.469s9.993-9.393 14.781-15.344c9.577-11.901 19.344-25.961 32.875-35.25 1.751-1.202 3.264-1.508 4.719-2.562 0.728-0.527 1.364-1.282 1.75-2.312s0.562-2.302 0.562-3.969c0-3.56-1.559-11.175-6.531-18.188s-13.499-13.251-26.967-13.251z" fill="#929ab8"/><g stroke-width="2.5" fill="none"><path id="path3800" d="m139.6 193.61c6.732 6.587 13.495 13.016 20.61 17.687" stroke="#929ab8"/><path id="path3838" d="m112.8 167.94c-7.757 23.353 2.624 45.627 17.5 64.625-3.987-11.39-4.989-23.029-5-34.75 6.162 7.36 13.21 12.773 19 16.25 0 0-9.796-29.789-5-51 4.638-20.509 2.408-31.709 2.408-31.709" stroke="#f0e268" stroke-miterlimit="6.2"/><g stroke="#929ab8"><path id="path3802" d="m155.97 207.94c1.925-1.608 4.218-3.216 7.309-4.824"/><path id="path3804" d="m228.91 173.73s40.928 0.146 40.928 14.471c0 10.378-37.712 9.355-37.712 9.355"/><path id="path3806" d="m222.77 203.7s59.113 19.583 59.113 34.129c0 15.131-50.489-0.656-66.13-2.556-7.986-0.97-14.763-1.242-14.763-1.242"/><path id="path3808" d="m198.5 232.05s38.005 29.381 38.005 47.067c0 20.756-58.03-27.627-58.03-27.627"/><path id="path3810" d="m127.26 246.47c8.348 5.364 16.338 12.199 28.412 7.22"/><path id="path3812" d="m174.97 253.25s8.77 17.541-3.801 17.541-25.726-15.202-25.726-15.202"/></g></g><path id="path3814" d="m201.8 173.37c-2.962 4.312-0.262 10.118 2.812 13.562 3.352 3.755 10.336 6.213 14.344 4.719-5.549-1.276-9.708-3.437-12.531-6.438-2.824-3.001-4.378-6.864-4.625-11.843z" fill="#929ab8"/><path id="path3816" d="m-23.761 193c0.504 5.142-0.233 9.433-2.375 12.875s-5.712 6.117-11.219 7.875c6.999 0.851 10.686-2.353 13.344-6.531 2.545-3.999 3.877-10.816 0.25-14.219z" fill="#929ab8"/><path id="path3911" d="m109.68 8.8116c0-1.125 3.625-5.625 3.625-5.625l4.125-1.25 8.375 5.25 10.625 11.5 7.625 13.75 4.375 11.875 1.25 12.25-1.75 12.5-44-51.75 5.75-8.5z" fill="#cccfe2"/><path id="path3905" d="m25.093 63.084 7.601 8.662 11.137 9.369 10.43 7.248 13.965 4.419 13.258 0.53-10.96-8.309-9.546-9.546-5.834-7.955 26.34-1.945 19.445 2.475 18.915 5.303 17.147 7.955 14.496 7.601-1.945-15.91-6.364-17.147-9.546-16.617-10.253-11.667-13.789-10.253 13.612 1.414-7.601-6.894-11.49-5.48-18.915-3.536-16.263 0.53-20.86 6.541-18.031 11.667-14.849 15.733 6.01 10.43 3.89 15.382z" fill="#feffa5"/><path id="path3822" d="m109.72 9.3756s3.456-10.971 10.165-6.109c37.93 27.494 28.429 66.364 28.429 66.364" stroke="#929ab8" stroke-width="2.5" fill="none"/><path id="path3824" d="m11.02 86.999c-7.596-13.217-10.961-23.512-9.062-40.688-5.274 8.944-3.299 31.568 9.062 40.688z" fill="#929ab8"/><path id="path3826" d="m123.08 19.468c5.156 7.067 9.326 14.46 10.219 21.625l2.5-0.312c-1.598-4.862-2.841-14.314-12.719-21.313z" fill="#929ab8"/><path id="path3790" d="m51.802 86.437c-6.873 10.252-17.187 16.788-29.281 21.625 7.372 0.104 10.513-2.067 13.111-3.578 7.24-4.245 13.526-9.605 18.264-16.672l-2.094-1.375z"/><path id="path3836" d="m79.677 1.9056c-40.804 0-64.906 34.219-64.906 34.219l2.062 1.469s23.441-33.188 62.844-33.188c15.804 0 26.966 4.091 34.188 8.156 3.145 1.77 5.407 3.464 7.094 4.875-3.327-0.742-6.907-1.255-11.781-1.5l-5.344-0.281 4.688 2.594c20.784 11.597 40.029 39.421 40.937 68.5-23.233-12.897-48.628-27.571-94.156-20.125l-1.812 0.312 0.938 1.562c5.417 9.118 14.061 17.424 23.438 23.344-10.43 0.296-19.307-2.55-27.219-7.406-8.919-5.475-17.675-14.374-25.254-22.279l-0.84 2.811c7.6 7.928 15.513 15.905 24.781 21.594s19.926 9.037 32.75 7.656l3.938-0.406-3.469-1.906c-9.729-5.367-18.937-13.882-24.844-23.031 44.772-6.744 69.052 8.18 92.531 21.156l1.875 1.031v-2.126c0.032-28.972-17.677-56.46-38.156-70.062 4.178 0.411 7.679 1.004 10.875 2.125l4.188 1.438-2.781-3.406s-3.598-4.37-11.156-8.625-19.172-8.501-35.409-8.501z" fill="#f0e268"/><g fill="#929ab8"><path id="path2987" d="m2.7076 24.187c-1.127 0.076-2.133 0.617-2.969 1.406s-1.555 1.833-2.281 3.094c-10.478 18.202-10.19 37.363-5.219 52.875 4.848 15.127 14.009 26.795 22.531 31.094 0.159 1.749 1.681 16.34 10 31.469 8.848 16.091 25.524 32.334 55.906 32.469 26.695 0.118 44.049-11.467 54.156-27.125 10.101-15.649 13.08-35.262 11.594-51.469-0.001-0.011 0.001-0.021 0-0.031-0.423-5.084-1.356-9.796-2.625-13.969l-2.406 0.719c1.22 4.011 2.156 8.554 2.562 13.469 1.448 15.724-1.508 34.863-11.219 49.906s-26.057 26.115-52.031 26c-29.504-0.131-45.193-15.626-53.75-31.188s-9.781-31.094-9.781-31.094l-0.062-0.75-0.656-0.281c-7.578-3.499-17.046-14.999-21.844-29.969s-5.09-33.346 5-50.875c0.662-1.151 1.298-1.985 1.844-2.5s0.963-0.718 1.438-0.75c0.95-0.064 2.666 0.776 5.312 3.25 6.449 6.028 10.746 15.579 13.344 23.625s3.531 14.531 3.531 14.531c1.383-5.168-0.599-13.559-1.156-15.312-2.664-8.253-7.001-18.145-14-24.688-2.809-2.625-4.965-4.057-7.219-3.906z"/><path id="path3828" d="m104.93 148.81c-0.613 7.023-4.357 13.769-10.312 15.25-6.159 1.532-12.624-3.543-16.812-8.938 2.08 8.358 11.803 12.36 17.344 10.875 6.746-1.808 12.324-10.412 9.78-17.187z"/><path id="path3830" d="m77.489 138.25c4.288-4.287 10.576-5.398 17.781-5.312-2.775-2.411-16.35-1.849-17.781 5.312z"/><path id="path3832" d="m82.864 150.94c-1.816-0.255-2.829-1.386-2.125-3.562-2.723 0.765-1.55 5.732 2.125 3.562z"/><path id="path3834" d="m98.77 144.16c0.998 1.857 0.296 3.273-1.406 3.625 2.853 1.956 4.909-3.213 1.406-3.625z"/></g><path id="path3854" d="m139.52 81.435-1.219 2.033 11.031 6.031 0.878-2.011-10.69-6.053z" fill="#f0e268"/><path id="path3793" d="m91.083 81.406c0.054 0.57 0.128 1.058 0.219 1.5s0.08 0.799 0.562 1.344c3.712 4.19 11.818 6.124 20.312 7.125 4.102 0.483 20.106 0.412 21.531-5.344-4.441 2.584-13.119 3.564-21.312 2.844s-16.021-3.151-18.656-6.281c-0.414-3.501-0.746-6.725-0.406-10.312-2.173 2.313-2.477 6.716-2.25 9.124z"/><path id="path3799" d="m139.3 118.75-0.445 2.139c3.173 0.976 10.468 1.698 14.664-1.826-4.366 0.811-8.722 1.143-14.219-0.313z"/><path id="path3801" d="m137.02 127.62-1.25 1.719c1.798 1.642 5.717 5.066 13.272 3.938-3.319-0.814-9.815-2.698-12.022-5.657z"/><path id="path3803" d="m29.989 142.84c-1.719 2.488-7.575 4.704-13.906 6.219 5.98 0.642 12.541-1.336 15.745-4.344l-1.839-1.875z"/><path id="path3805" d="m36.864 152c-1.773 3.429-4.786 6.31-9.625 9.344 6.865-0.88 10.203-5.017 11.75-7.969l-2.125-1.375z"/><path id="path3039" d="m60.614 110.59s4.812 14.119 4.812 28.594c0 7.194-1.55 11.935-3.719 14.875s-4.952 4.163-7.75 4.375c-7.514 0.569-14.788-5.815-20.125-12.625s-8.656-13.781-8.656-13.781l-0.625-1.344c-3.051 2.482-5.972 4.954-10.625 6.531 5.529 0.148 8.097-1.816 9.688-2.812 0.825 1.655 3.547 6.929 8.281 12.969 5.538 7.065 13.264 14.243 22.25 13.562 3.434-0.26 6.977-1.902 9.562-5.406s4.219-8.81 4.219-16.344c0.001-4.872-1.252-22.675-7.312-28.594z"/><path id="path3813" d="m98.645 104.16c-1.99 5.615 1.531 18.855 2.031 20.312 1.728 5.037 4.068 10.104 7.281 14s7.409 6.656 12.594 6.656c4.681 0 8.418-2.521 11.188-6.062s4.697-8.137 6.094-12.688c2.477-8.069 3.108-15.13 3.25-16.844 4.469 0.028 8.047 0.294 10.969-2.25-4.391 0.71-8.598 0.255-13.188-0.688l-0.125 1.469s-0.594 8.84-3.281 17.594c-1.343 4.377-3.22 8.721-5.687 11.875s-5.414 5.094-9.219 5.094c-4.317 0-7.746-2.221-10.656-5.75s-5.197-8.353-6.875-13.219c-3.356-9.73-4.376-19.499-4.376-19.499z"/></svg>
